<?xml version="1.0" encoding="utf-8"?>
<svg version="1.1" xmlns="http://www.w3.org/2000/svg" width="1024" height="1024">
  <path d="M 164.861 167.478 C 191.568 124.287 797.404 84.126 867.054 180.941 C 928.011 265.672 909.489 820.432 862.103 854.054 C 781.288 931.877 198.446 915.486 163.942 854.814 C 94.3 769.113 121.749 181.763 164.861 167.478 Z" fill="#92C0EB" style=""/>
  <path d="M0 0 C9.53105469 -0.00035812 19.06207446 -0.01217962 28.59311789 -0.02593523 C37.97359269 -0.03897694 47.35405149 -0.04437803 56.73453528 -0.04373616 C62.25361842 -0.04348343 67.77265679 -0.04621961 73.29173052 -0.05691421 C78.39099782 -0.0665558 83.49017632 -0.06670203 88.58944666 -0.05939758 C90.44909955 -0.05835224 92.30875801 -0.06071159 94.16840136 -0.06675804 C96.70472761 -0.07447646 99.24074532 -0.06983725 101.77706492 -0.06212699 C102.50672467 -0.06727056 103.23638442 -0.07241412 103.98815507 -0.07771355 C108.69473371 -0.04610624 112.5049114 0.7284507 116.92939341 2.18511117 C116.93748026 3.34863106 116.94556712 4.51215096 116.95389903 5.71092904 C117.03162823 16.71496174 117.11943358 27.71887487 117.2169205 38.72275078 C117.26671184 44.3789622 117.31304253 50.03515648 117.35126841 55.69145882 C117.38833905 61.15749669 117.43475618 66.62338488 117.48745692 72.0892936 C117.50588578 74.16708143 117.52103544 76.24490121 117.53273737 78.32273781 C117.63740976 96.27787549 117.75982337 112.33429679 130.68720591 126.26714242 C162.06919609 153.11131868 224.28739996 138.88983288 252.92939341 139.18511117 C252.92939341 240.82511117 252.92939341 342.46511117 252.92939341 447.18511117 C142.61689341 447.49761117 142.61689341 447.49761117 107.79926646 447.57305062 C97.49021502 447.60961954 97.49021502 447.60961954 87.18117869 447.65012276 C82.59331835 447.66804263 78.00552159 447.67766192 73.41762888 447.68222725 C67.55939474 447.68833005 61.70137104 447.70870714 55.84321523 447.73927259 C53.69707951 447.74806676 51.55091623 447.75191218 49.40476322 447.75015044 C35.13421459 447.74198672 23.27262591 448.27342462 10.92939341 456.18511117 C9.59908091 457.02042367 9.59908091 457.02042367 8.24189341 457.87261117 C-0.60786995 466.72237453 -3.39051118 477.62247258 -3.51309621 489.75595772 C-3.51104337 491.10083349 -3.50805418 492.4457081 -3.50420034 493.79057992 C-3.50877433 495.20149654 -3.51408346 496.61241095 -3.52008474 498.02332222 C-3.5289775 500.97098034 -3.52663969 503.91836702 -3.51665151 506.86601937 C-3.50520863 510.60328454 -3.5253197 514.33959814 -3.55456865 518.07673848 C-3.57311774 520.98969945 -3.57260084 523.90244066 -3.56693113 526.81544602 C-3.56677996 528.19105843 -3.572651 529.56668777 -3.5852226 530.94224274 C-3.70376482 546.04474278 -0.79921905 558.65725226 9.55048716 569.95464242 C17.73962293 577.71173745 27.90661819 580.33078178 38.83838999 580.34332955 C40.20333948 580.35073651 40.20333948 580.35073651 41.5958637 580.35829312 C44.65137435 580.37367681 47.70686398 580.38203113 50.76240122 580.39043343 C52.95015742 580.40001127 55.13791177 580.41002129 57.32566416 580.42043221 C63.27150682 580.44749756 69.21735742 580.46849833 75.16322768 580.4884342 C81.374584 580.51028367 87.58591577 580.53767744 93.7972523 580.56449044 C104.22475199 580.60875371 114.65226049 580.64958659 125.07978404 580.68779671 C135.82002841 580.72716214 146.56026157 580.76859087 157.30048716 580.81279671 C157.96254928 580.81552098 158.62461141 580.81824526 159.30673602 580.82105208 C162.62811744 580.83473173 165.94949869 580.84845419 169.27087986 580.86219239 C196.82369474 580.97603394 224.37653323 581.08286827 251.92939341 581.18511117 C250.85215357 588.30659268 248.29253811 593.34801195 242.70673716 598.06011117 C236.26856142 602.5313651 231.36841056 603.30869231 223.5329138 603.31933224 C222.42455753 603.32286059 222.42455753 603.32286059 221.29381022 603.32646021 C218.81024737 603.33313342 216.32673704 603.3326925 213.84316599 603.33228219 C212.04756388 603.33558184 210.2519625 603.33930763 208.45636207 603.34342366 C203.51587765 603.35343996 198.57540538 603.35715986 193.63491225 603.35981297 C188.30891883 603.36371704 182.98293502 603.37329522 177.65694773 603.38202584 C164.79272673 603.40178588 151.92850494 603.41185524 139.06427255 603.42075363 C133.00719366 603.42513671 126.95011564 603.43050342 120.89303744 603.4357425 C100.7603053 603.45275324 80.62757371 603.46724815 60.4948355 603.47449124 C55.27062888 603.47640114 50.04642227 603.47832148 44.82221568 603.48027718 C42.87452953 603.48100279 42.87452953 603.48100279 40.8874962 603.48174306 C19.84599891 603.49004616 -1.19544158 603.51538851 -22.23691406 603.54785786 C-43.83617881 603.58091648 -65.43541468 603.59893886 -87.03470486 603.60213548 C-99.16340907 603.60430153 -111.29203041 603.61306429 -123.42070997 603.63859665 C-133.74823017 603.66028714 -144.07564738 603.66836212 -154.40318777 603.65862987 C-159.67226022 603.65408061 -164.94112009 603.65600802 -170.21016347 603.67539132 C-175.03589487 603.69299051 -179.86125808 603.69205151 -184.68699322 603.67649402 C-186.43062161 603.67411306 -188.17427529 603.67846683 -189.917865 603.69032267 C-200.49858215 603.75779868 -211.52835116 603.70130636 -219.70338672 595.85853189 C-228.72862757 584.81200933 -227.91364297 573.1367558 -227.81232107 559.58081734 C-227.81708957 557.27110484 -227.82448457 554.96139653 -227.8342703 552.65169984 C-227.85346713 546.32250253 -227.83534105 539.99388306 -227.81097746 533.66472387 C-227.7902927 527.53464626 -227.80376929 521.40459212 -227.81346508 515.27450278 C-227.83226173 502.73857789 -227.82280868 490.2028226 -227.79668272 477.66691697 C-227.77081828 465.25369168 -227.75612274 452.8405426 -227.75668561 440.42728913 C-227.75670855 439.65445228 -227.75673149 438.88161543 -227.75675512 438.08535927 C-227.75687785 434.94805267 -227.75707469 431.81074608 -227.75737256 428.67343948 C-227.76008935 399.25735293 -227.73027734 369.84138239 -227.68408356 340.42533609 C-227.64320134 314.29535816 -227.6245003 288.1654626 -227.62651479 262.03545296 C-227.62663603 260.35718103 -227.62675711 258.67890909 -227.62687803 257.00063715 C-227.62693908 256.17092731 -227.62700013 255.34121746 -227.62706304 254.4863649 C-227.62736543 250.30964192 -227.62763717 246.13291893 -227.62787378 241.95619595 C-227.62792392 241.13217615 -227.62797406 240.30815634 -227.62802572 239.45916624 C-227.62912133 217.6171997 -227.61550442 195.77524346 -227.59689409 173.93328553 C-227.59623327 173.15629719 -227.59557245 172.37930884 -227.59489161 171.57877539 C-227.59222697 168.45440987 -227.58956176 165.33004436 -227.58681875 162.20567891 C-227.57734289 151.33950264 -227.57281149 140.47333448 -227.57148428 129.60715435 C-227.56969263 115.60592121 -227.55770187 101.60475601 -227.5281899 87.6035519 C-227.51420439 80.85211604 -227.50520032 74.100769 -227.50897253 67.34931672 C-227.51225732 61.170688 -227.50170454 54.99224423 -227.48002695 48.81365409 C-227.474587 46.57699652 -227.47419608 44.34031987 -227.47932882 42.10366157 C-227.48553002 39.06526588 -227.47331949 36.02747512 -227.45650995 32.98913205 C-227.4626759 32.11937624 -227.46884186 31.24962043 -227.47519466 30.35350838 C-227.39331823 22.25973475 -225.46530013 14.40975756 -220.07060659 8.18511117 C-212.28369429 2.56269652 -206.25121277 1.04949131 -196.72650564 0.98276436 C-195.46888397 0.96836541 -195.46888397 0.96836541 -194.18585581 0.95367557 C-191.37541262 0.92283327 -188.56495654 0.89897304 -185.75444448 0.87529671 C-183.73779081 0.85508133 -181.72114033 0.8345457 -179.70449293 0.81371415 C-174.20276092 0.75853638 -168.70098852 0.71024993 -163.19917595 0.66387689 C-159.71661614 0.6342094 -156.23407396 0.60294118 -152.75153196 0.5712558 C-101.83472958 0.11148917 -50.91862286 -0.0028188 0 0 Z " fill="#F7F7F7" transform="translate(497.0706065893173,209.8148888349533)"/>
  <path d="M0 0 C1.30685393 -0.00382555 2.61370785 -0.00765109 3.96016341 -0.01159257 C7.54442882 -0.02177295 11.1285931 -0.01971659 14.71286643 -0.01541197 C18.59494997 -0.01292657 22.47701028 -0.02198099 26.35908508 -0.02944946 C33.9462061 -0.0421463 41.53329164 -0.04399663 49.12042149 -0.0416492 C55.28895211 -0.03986104 61.45747202 -0.0416263 67.62600136 -0.04587364 C68.50626878 -0.04646883 69.38653621 -0.04706402 70.2934784 -0.04767724 C72.08207688 -0.04888907 73.87067536 -0.0501032 75.65927384 -0.05131962 C92.40005048 -0.06217482 109.14080692 -0.06004165 125.88158468 -0.05393478 C141.18279019 -0.04876162 156.48393211 -0.06003518 171.78512504 -0.07903299 C187.52105007 -0.09841999 203.25694502 -0.10666625 218.99288207 -0.10290974 C227.81773176 -0.10099975 236.64252726 -0.10346601 245.46736717 -0.11762428 C252.97587907 -0.12954967 260.4843034 -0.1309296 267.99281653 -0.11883412 C271.82006211 -0.11295494 275.64714758 -0.11181946 279.4743824 -0.12383652 C283.6300205 -0.13673286 287.78527924 -0.12620895 291.94091797 -0.11352539 C293.74035033 -0.12458682 293.74035033 -0.12458682 295.57613486 -0.13587171 C321.16552478 0.02812634 335.01054135 15.8313428 351.88545227 32.73335266 C353.37882171 34.22604694 354.87233943 35.71859288 356.36599731 37.21099854 C359.47982102 40.32335615 362.59184992 43.43749413 365.70259094 46.55293274 C369.67324723 50.5292956 373.64839051 54.50113775 377.62488842 58.47165775 C380.70404535 61.54718808 383.7808005 64.62511228 386.85685158 67.7037487 C388.321224 69.16878407 389.78632816 70.63308845 391.25220299 72.09662056 C393.30451273 74.14636801 395.35355165 76.19933284 397.40180969 78.25312805 C398.29426895 79.14255096 398.29426895 79.14255096 399.20475769 80.04994202 C402.84752975 83.71081979 406.27357013 87.50873453 409.65266705 91.41354275 C411.76726355 93.813804 414.00351011 96.06060827 416.29389954 98.29292297 C417.67552025 99.64538116 417.67552025 99.64538116 419.08505249 101.02516174 C419.56548571 101.49336586 420.04591892 101.96156998 420.54091072 102.4439621 C423.1400552 104.98109576 425.72304404 107.53463701 428.3092804 110.08491516 C431.57519256 113.30308839 434.84545191 116.51648447 438.13130188 119.71430969 C440.81116087 122.32322155 443.47551701 124.94714733 446.1307354 127.58112335 C447.13345651 128.57042175 448.1415164 129.554344 449.15535164 130.53224945 C457.03385999 138.13897425 464.83640276 147.29550227 465.40418202 158.77086759 C465.4038023 159.72320617 465.40342258 160.67554476 465.40303135 161.6567421 C465.4050224 162.7584925 465.40701345 163.86024291 465.40906483 164.99537969 C465.40615199 166.20548609 465.40323915 167.41559248 465.40023804 168.66236877 C465.40109246 169.94802191 465.40194689 171.23367506 465.4028272 172.55828738 C465.4050661 176.12935539 465.40105911 179.70039348 465.39604914 183.27145767 C465.39173618 187.12145742 465.39319167 190.97145543 465.39395142 194.82145691 C465.39447611 201.49268749 465.39133496 208.16390829 465.38571358 214.83513641 C465.37759126 224.4806472 465.3749826 234.12615326 465.37372559 243.77166709 C465.37153622 259.42035663 465.36487926 275.06904095 465.35542297 290.71772766 C465.34624588 305.92020135 465.3391665 321.12267363 465.33491516 336.32514954 C465.33465244 337.26201525 465.33438971 338.19888097 465.33411903 339.16413656 C465.332814 343.86405239 465.33155029 348.56396822 465.33030713 353.26388407 C465.31993811 392.26282516 465.30232292 431.26176044 465.27998352 470.26069641 C466.16476379 470.25344543 467.04954407 470.24619446 467.96113586 470.23872375 C469.12596497 470.23308411 470.29079407 470.22744446 471.49092102 470.22163391 C473.22027893 470.21075745 473.22027893 470.21075745 474.98457336 470.19966125 C485.25521182 470.38988644 494.50602348 474.48138101 502.09248352 481.44819641 C509.82263902 489.81014347 513.53301097 499.91604115 513.69404602 511.11225891 C513.72309525 512.39343094 513.72309525 512.39343094 513.75273132 513.70048523 C513.81217236 516.42878852 513.85854008 519.15714441 513.90498352 521.88569641 C513.94324132 523.66435974 513.98229734 525.44300608 514.02217102 527.22163391 C514.13653707 532.56771074 514.21268333 537.91384783 514.27998352 543.26069641 C514.2935791 544.16854889 514.30717468 545.07640137 514.32118225 546.01176453 C514.35872587 548.69499947 514.38370733 551.37806939 514.40498352 554.06147766 C514.42330734 555.26068344 514.42330734 555.26068344 514.44200134 556.4841156 C514.49658589 569.31385044 510.97199931 582.92306871 502.17451477 592.56929016 C493.54473862 600.66434696 484.28438186 604.59705744 472.34248352 604.38569641 C471.65863586 604.37667297 470.97478821 604.36764954 470.2702179 604.35835266 C468.60665065 604.33508599 466.94326721 604.29922808 465.27998352 604.26069641 C465.15623352 606.14788391 465.15623352 606.14788391 465.02998352 608.07319641 C463.51168 621.32195454 456.54973739 632.8798437 446.27998352 641.26069641 C433.88172109 649.3237556 420.31937851 649.70051781 406.0617218 649.64164734 C404.22850326 649.6451086 402.3952868 649.6498763 400.56207466 649.65582907 C395.54999823 649.66830431 390.53809408 649.66218453 385.52601719 649.65287042 C380.11080342 649.646066 374.69561871 649.65656806 369.28041077 649.66481018 C358.68206125 649.67813484 348.08377556 649.67527541 337.48542356 649.66657226 C328.87024634 649.65979114 320.25508697 649.65888085 311.63990784 649.66214371 C309.79915308 649.66283326 309.79915308 649.66283326 307.92121136 649.66353673 C305.42807054 649.66449593 302.93492972 649.66546857 300.44178891 649.66645451 C277.07550895 649.67500469 253.70926433 649.66518009 230.34299016 649.64905341 C210.30308922 649.63565058 190.26324315 649.63797877 170.2233429 649.65180969 C146.93943104 649.66787205 123.65555015 649.67418075 100.37163353 649.6649729 C97.88777543 649.66401728 95.40391732 649.66307416 92.9200592 649.66214371 C91.69802264 649.66168088 90.47598608 649.66121805 89.21691811 649.6607412 C80.61425477 649.65815329 72.0116111 649.66251804 63.40895081 649.66958237 C52.92209365 649.67800484 42.43530384 649.67570146 31.94845438 649.65974014 C26.60014293 649.65186754 21.25194368 649.64874864 15.90363312 649.65868759 C11.00348572 649.66765584 6.10355407 649.66266654 1.20342612 649.64675494 C-0.56492089 649.64341616 -2.3332863 649.64508077 -4.10162139 649.6523823 C-20.98593025 649.71672619 -33.96638927 647.35144695 -46.97001648 635.69819641 C-57.89176613 624.21462837 -60.88002654 608.77848803 -60.85423756 593.53566456 C-60.85658979 592.58146255 -60.85894202 591.62726054 -60.86136553 590.64414331 C-60.86802334 587.44623253 -60.86759828 584.24836267 -60.8671875 581.05044556 C-60.8704881 578.73466769 -60.87421409 576.41889039 -60.87832898 574.10311383 C-60.88833428 567.73860127 -60.89206339 561.37409814 -60.89471829 555.00957882 C-60.89774385 548.85066171 -60.90637186 542.69175102 -60.91426222 536.53283863 C-60.93508022 520.03727879 -60.94557152 503.54171719 -60.95439183 487.04614728 C-60.95860137 479.24067534 -60.96382289 471.43520417 -60.96907636 463.62973287 C-60.9869626 436.90319065 -61.00195876 410.17664821 -61.00939655 383.4501009 C-61.00987131 381.77308448 -61.0103472 380.09606807 -61.01082421 378.41905166 C-61.01106059 377.5874196 -61.01129697 376.75578754 -61.01154051 375.89895451 C-61.01274168 371.68563215 -61.01395714 367.47230979 -61.0151825 363.25898743 C-61.01542265 362.42284879 -61.01566279 361.58671016 -61.01591022 360.72523399 C-61.02380434 333.61152767 -61.04724052 306.49786508 -61.07973844 279.38417786 C-61.11404657 250.70778532 -61.13374849 222.03141837 -61.13704079 193.35500497 C-61.13745832 190.20629671 -61.13793789 187.05758847 -61.13846397 183.90888023 C-61.13858717 183.13359817 -61.13871036 182.3583161 -61.13883728 181.55954063 C-61.1411678 169.09160277 -61.15681918 156.62371579 -61.17730582 144.15579605 C-61.19757481 131.62141017 -61.20303599 119.08708531 -61.19353519 106.55268607 C-61.18878278 99.76428656 -61.19091217 92.97606187 -61.21029663 86.18768311 C-61.22789698 79.97042359 -61.2269556 73.75344985 -61.21139934 67.53618743 C-61.20901859 65.28990787 -61.21337091 63.04360868 -61.22522799 60.79735915 C-61.31550765 42.56146313 -59.51552547 27.65063024 -46.72001648 13.57319641 C-33.45224656 1.03882081 -17.43261936 -0.05522834 0 0 Z M84.59546185 23.27496243 C68.66969478 23.33710271 52.74425232 23.42086044 36.81878471 23.53697777 C32.21931565 23.57013501 27.61988315 23.59674033 23.02034187 23.61751747 C17.66701655 23.64216164 12.31398515 23.68107818 6.96083951 23.73120332 C5.00633978 23.74721627 3.05179238 23.75830899 1.09723544 23.76403594 C-1.57609961 23.77276735 -4.24866386 23.79978378 -6.92181396 23.83129883 C-8.06950757 23.82870449 -8.06950757 23.82870449 -9.2403869 23.82605773 C-17.03065205 23.95769941 -24.76057781 26.09584957 -30.72001648 31.26069641 C-36.6027067 39.40808428 -37.87000089 45.74917987 -37.85982418 55.57252598 C-37.8627756 56.51850093 -37.86572703 57.46447589 -37.86876789 58.43911675 C-37.87746932 61.62709335 -37.87904048 64.81503372 -37.88064575 68.00302124 C-37.88537601 70.30454848 -37.89052682 72.6060749 -37.89606339 74.90760034 C-37.9099817 81.24661408 -37.91755652 87.58562207 -37.92403638 93.92464721 C-37.93074453 100.05467016 -37.94302819 106.18468338 -37.95451137 112.31469884 C-37.98635591 129.51969217 -38.00619657 146.72469451 -38.02379689 163.92970744 C-38.02856566 168.5899452 -38.03357416 173.25018269 -38.03860211 177.91042018 C-38.06964793 206.84136057 -38.09626349 235.77230327 -38.1130209 264.70325565 C-38.11695808 271.40526394 -38.12096994 278.10727219 -38.12504578 284.8092804 C-38.12554744 285.64191392 -38.12604911 286.47454745 -38.12656598 287.33241229 C-38.14298367 314.32767624 -38.18144081 341.32284954 -38.23233288 368.3180689 C-38.28456289 396.07359754 -38.31733658 423.82907791 -38.32459843 451.58465669 C-38.32562701 455.50547795 -38.32686332 459.42629912 -38.32821846 463.34712029 C-38.3284765 464.11875983 -38.32873454 464.89039937 -38.32900039 465.68542192 C-38.33369367 478.09889377 -38.3586213 490.51224605 -38.39096989 502.92567316 C-38.42301718 515.40553458 -38.43297211 527.88526148 -38.42053794 540.36515916 C-38.41439748 547.12514477 -38.41862075 553.88473333 -38.44870758 560.64466667 C-38.47603443 566.83496894 -38.47559715 573.02462952 -38.45319713 579.21494585 C-38.44997007 581.45255503 -38.45686639 583.69020691 -38.47499435 585.92774499 C-38.79295569 602.56219352 -38.79295569 602.56219352 -31.72001648 617.26069641 C-25.04136472 623.86972359 -17.27805923 626.63476951 -7.95160007 626.63821983 C-7.20893476 626.64258016 -6.46626945 626.64694048 -5.70109913 626.65143293 C-3.22264294 626.66234582 -0.74474813 626.65198598 1.73370361 626.64164734 C3.53260967 626.64510548 5.3315136 626.64987109 7.13041312 626.65582907 C12.06610678 626.66834735 17.00162632 626.66216485 21.93732059 626.65287042 C27.26324889 626.64608365 32.58914723 626.65655935 37.91506958 626.66481018 C48.34585354 626.67815392 58.77657275 626.67526682 69.20735925 626.66657226 C77.68488149 626.65979829 86.16238558 626.65887775 94.63990974 626.66214371 C95.84628482 626.66260341 97.05265989 626.66306311 98.29559179 626.66353673 C100.74629994 626.66449591 103.19700809 626.66546855 105.64771623 626.66645451 C128.63141964 626.67501038 151.61508717 626.66517136 174.59878469 626.64905341 C194.31960267 626.63565176 214.04036767 626.63797669 233.76118469 626.65180969 C256.6608591 626.66786495 279.56050204 626.67418459 302.4601813 626.6649729 C304.90220137 626.66401725 307.34422145 626.66307414 309.78624153 626.66214371 C310.9877673 626.66168088 312.18929306 626.66121805 313.4272287 626.6607412 C321.89399773 626.65815103 330.3607468 626.66252295 338.82751274 626.66958237 C349.14656915 626.67799702 359.4655571 626.67571798 369.78460567 626.65974014 C375.04948232 626.65185675 380.31424484 626.64876704 385.57912064 626.65868759 C390.39970397 626.66763356 395.22006747 626.66270311 400.04063088 626.64675494 C401.7834722 626.64340672 403.52633213 626.64510212 405.26916146 626.6523823 C421.18563916 626.815413 421.18563916 626.815413 434.70576477 619.07319641 C438.58886361 614.60233323 441.27998352 610.2265506 441.27998352 604.26069641 C440.14599467 604.25922985 439.01200583 604.25776329 437.84365368 604.25625229 C410.23379537 604.21963509 382.62405816 604.16015625 355.01430035 604.07679367 C341.66234198 604.03700754 328.31046157 604.00461283 314.95845032 603.98970032 C303.31899034 603.97668167 291.67965998 603.9497113 280.04027301 603.90608335 C273.87898012 603.88347362 267.71784708 603.86778546 261.55650902 603.86881256 C255.75262058 603.86955944 249.94908547 603.85159677 244.14528847 603.81952858 C242.01973711 603.81103737 239.89414609 603.80927432 237.76858521 603.81489372 C222.35060067 603.85021291 209.28754665 602.75447839 197.52998352 591.60054016 C187.40081999 580.48378319 185.80766882 566.78518529 185.88154602 552.28413391 C185.87951895 550.86409863 185.87660228 549.44406436 185.87284851 548.02403259 C185.86845771 545.0673366 185.87475209 542.11091488 185.88887024 539.1542511 C185.90599211 535.38754224 185.8960818 531.6214735 185.87815285 527.85478783 C185.8672533 524.92917658 185.87078887 522.00371431 185.87853622 519.0780983 C185.8805196 517.68999274 185.8781454 516.30187311 185.87109756 514.91378403 C185.82259267 502.68461843 187.8098023 493.15910809 195.27998352 483.26069641 C204.92746354 473.93280165 216.72806861 470.95203044 229.79025269 470.98222351 C230.70230469 470.97643784 231.61435669 470.97065216 232.55404663 470.96469116 C235.59627341 470.94776401 238.63834825 470.94483176 241.68061829 470.94184875 C243.90445031 470.93243217 246.12827883 470.9221522 248.35210323 470.91108131 C254.29368074 470.88387608 260.23523357 470.86844816 266.17685699 470.85549927 C271.75744891 470.84154145 277.33797409 470.8169096 282.91853333 470.79316711 C299.22647878 470.72997944 315.53448682 470.68387635 331.84248352 470.63569641 C368.28685852 470.51194641 404.73123352 470.38819641 442.27998352 470.26069641 C442.27998352 368.62069641 442.27998352 266.98069641 442.27998352 162.26069641 C410.26998352 161.93069641 378.25998352 161.60069641 345.27998352 161.26069641 C333.48518692 158.6396305 322.82431332 153.95975438 315.56123352 143.87397766 C308.79976462 133.05231297 307.15898256 123.22487843 307.07466125 110.63179016 C307.06476166 109.70403275 307.05486206 108.77627533 307.04466248 107.82040405 C307.01328868 104.77969338 306.98838627 101.73896712 306.96357727 98.69819641 C306.94298687 96.5797029 306.92198987 94.4612133 306.90060425 92.34272766 C306.84559894 86.78618047 306.79609527 81.22959754 306.74775696 75.67298889 C306.69738397 69.99516139 306.64178063 64.31738535 306.58662415 58.63960266 C306.47930631 47.51334461 306.37780353 36.38704174 306.27998352 25.26069641 C301.14275986 23.56938191 296.54690818 22.97525651 291.12765503 23.01345825 C289.93630751 23.00983663 289.93630751 23.00983663 288.72089237 23.00614184 C286.06936208 23.00052611 283.41807511 23.00915533 280.76655579 23.01777649 C278.85547318 23.01670225 276.94439089 23.01476145 275.03330994 23.01202393 C269.8181982 23.00716345 264.60317181 23.01487139 259.38807034 23.02497697 C253.81932271 23.0338599 248.25057701 23.03199726 242.68182373 23.03161621 C233.22649253 23.03255604 223.77119315 23.04123953 214.31587219 23.05488586 C204.84060532 23.06851887 195.36536777 23.07591299 185.89009094 23.07539368 C152.12487729 23.07392309 118.36041634 23.14422868 84.59546185 23.27496243 Z " fill="#1E3B61" transform="translate(307.7200164794922,186.7393035888672)"/>
  <!-- ... rest of the paths from src/assets/logo.svg ... -->
</svg>

