<?xml version="1.0" encoding="utf-8"?>
<svg version="1.1" xmlns="http://www.w3.org/2000/svg" width="1024" height="1024">
  <path d="M 164.861 167.478 C 191.568 124.287 797.404 84.126 867.054 180.941 C 928.011 265.672 909.489 820.432 862.103 854.054 C 781.288 931.877 198.446 915.486 163.942 854.814 C 94.3 769.113 121.749 181.763 164.861 167.478 Z" fill="#92C0EB" style=""/>
  <path d="M0 0 C9.53105469 -0.00035812 19.06207446 -0.01217962 28.59311789 -0.02593523 C37.97359269 -0.03897694 47.35405149 -0.04437803 56.73453528 -0.04373616 C62.25361842 -0.04348343 67.77265679 -0.04621961 73.29173052 -0.05691421 C78.39099782 -0.0665558 83.49017632 -0.06670203 88.58944666 -0.05939758 C90.44909955 -0.05835224 92.30875801 -0.06071159 94.16840136 -0.06675804 C96.70472761 -0.07447646 99.24074532 -0.06983725 101.77706492 -0.06212699 C102.50672467 -0.06727056 103.23638442 -0.07241412 103.98815507 -0.07771355 C108.69473371 -0.04610624 112.5049114 0.7284507 116.92939341 2.18511117 C116.93748026 3.34863106 116.94556712 4.51215096 116.95389903 5.71092904 C117.03162823 16.71496174 117.11943358 27.71887487 117.2169205 38.72275078 C117.26671184 44.3789622 117.31304253 50.03515648 117.35126841 55.69145882 C117.38833905 61.15749669 117.43475618 66.62338488 117.48745692 72.0892936 C117.50588578 74.16708143 117.52103544 76.24490121 117.53273737 78.32273781 C117.63740976 96.27787549 117.75982337 112.33429679 130.68720591 126.26714242 C162.06919609 153.11131868 224.28739996 138.88983288 252.92939341 139.18511117 C252.92939341 240.82511117 252.92939341 342.46511117 252.92939341 447.18511117 C142.61689341 447.49761117 142.61689341 447.49761117 107.79926646 447.57305062 C97.49021502 447.60961954 97.49021502 447.60961954 87.18117869 447.65012276 C82.59331835 447.66804263 78.00552159 447.67766192 73.41762888 447.68222725 C67.55939474 447.68833005 61.70137104 447.70870714 55.84321523 447.73927259 C53.69707951 447.74806676 51.55091623 447.75191218 49.40476322 447.75015044 C35.13421459 447.74198672 23.27262591 448.27342462 10.92939341 456.18511117 C9.59908091 457.02042367 9.59908091 457.02042367 8.24189341 457.87261117 C-0.60786995 466.72237453 -3.39051118 477.62247258 -3.51309621 489.75595772 C-3.51104337 491.10083349 -3.50805418 492.4457081 -3.50420034 493.79057992 C-3.50877433 495.20149654 -3.51408346 496.61241095 -3.52008474 498.02332222 C-3.5289775 500.97098034 -3.52663969 503.91836702 -3.51665151 506.86601937 C-3.50520863 510.60328454 -3.5253197 514.33959814 -3.55456865 518.07673848 C-3.57311774 520.98969945 -3.57260084 523.90244066 -3.56693113 526.81544602 C-3.56677996 528.19105843 -3.572651 529.56668777 -3.5852226 530.94224274 C-3.70376482 546.04474278 -0.79921905 558.65725226 9.55048716 569.95464242 C17.73962293 577.71173745 27.90661819 580.33078178 38.83838999 580.34332955 C40.20333948 580.35073651 40.20333948 580.35073651 41.5958637 580.35829312 C44.65137435 580.37367681 47.70686398 580.38203113 50.76240122 580.39043343 C52.95015742 580.40001127 55.13791177 580.41002129 57.32566416 580.42043221 C63.27150682 580.44749756 69.21735742 580.46849833 75.16322768 580.4884342 C81.374584 580.51028367 87.58591577 580.53767744 93.7972523 580.56449044 C104.22475199 580.60875371 114.65226049 580.64958659 125.07978404 580.68779671 C135.82002841 580.72716214 146.56026157 580.76859087 157.30048716 580.81279671 C157.96254928 580.81552098 158.62461141 580.81824526 159.30673602 580.82105208 C162.62811744 580.83473173 165.94949869 580.84845419 169.27087986 580.86219239 C196.82369474 580.97603394 224.37653323 581.08286827 251.92939341 581.18511117 C250.85215357 588.30659268 248.29253811 593.34801195 242.70673716 598.06011117 C236.26856142 602.5313651 231.36841056 603.30869231 223.5329138 603.31933224 C222.42455753 603.32286059 222.42455753 603.32286059 221.29381022 603.32646021 C218.81024737 603.33313342 216.32673704 603.3326925 213.84316599 603.33228219 C212.04756388 603.33558184 210.2519625 603.33930763 208.45636207 603.34342366 C203.51587765 603.35343996 198.57540538 603.35715986 193.63491225 603.35981297 C188.30891883 603.36371704 182.98293502 603.37329522 177.65694773 603.38202584 C164.79272673 603.40178588 151.92850494 603.41185524 139.06427255 603.42075363 C133.00719366 603.42513671 126.95011564 603.43050342 120.89303744 603.4357425 C100.7603053 603.45275324 80.62757371 603.46724815 60.4948355 603.47449124 C55.27062888 603.47640114 50.04642227 603.47832148 44.82221568 603.48027718 C42.87452953 603.48100279 42.87452953 603.48100279 40.8874962 603.48174306 C19.84599891 603.49004616 -1.19544158 603.51538851 -22.23691406 603.54785786 C-43.83617881 603.58091648 -65.43541468 603.59893886 -87.03470486 603.60213548 C-99.16340907 603.60430153 -111.29203041 603.61306429 -123.42070997 603.63859665 C-133.74823017 603.66028714 -144.07564738 603.66836212 -154.40318777 603.65862987 C-159.67226022 603.65408061 -164.94112009 603.65600802 -170.21016347 603.67539132 C-175.03589487 603.69299051 -179.86125808 603.69205151 -184.68699322 603.67649402 C-186.43062161 603.67411306 -188.17427529 603.67846683 -189.917865 603.69032267 C-200.49858215 603.75779868 -211.52835116 603.70130636 -219.70338672 595.85853189 C-228.72862757 584.81200933 -227.91364297 573.1367558 -227.81232107 559.58081734 C-227.81708957 557.27110484 -227.82448457 554.96139653 -227.8342703 552.65169984 C-227.85346713 546.32250253 -227.83534105 539.99388306 -227.81097746 533.66472387 C-227.7902927 527.53464626 -227.80376929 521.40459212 -227.81346508 515.27450278 C-227.83226173 502.73857789 -227.82280868 490.2028226 -227.79668272 477.66691697 C-227.77081828 465.25369168 -227.75612274 452.8405426 -227.75668561 440.42728913 C-227.75670855 439.65445228 -227.75673149 438.88161543 -227.75675512 438.08535927 C-227.75687785 434.94805267 -227.75707469 431.81074608 -227.75737256 428.67343948 C-227.76008935 399.25735293 -227.73027734 369.84138239 -227.68408356 340.42533609 C-227.64320134 314.29535816 -227.6245003 288.1654626 -227.62651479 262.03545296 C-227.62663603 260.35718103 -227.62675711 258.67890909 -227.62687803 257.00063715 C-227.62693908 256.17092731 -227.62700013 255.34121746 -227.62706304 254.4863649 C-227.62736543 250.30964192 -227.62763717 246.13291893 -227.62787378 241.95619595 C-227.62792392 241.13217615 -227.62797406 240.30815634 -227.62802572 239.45916624 C-227.62912133 217.6171997 -227.61550442 195.77524346 -227.59689409 173.93328553 C-227.59623327 173.15629719 -227.59557245 172.37930884 -227.59489161 171.57877539 C-227.59222697 168.45440987 -227.58956176 165.33004436 -227.58681875 162.20567891 C-227.57734289 151.33950264 -227.57281149 140.47333448 -227.57148428 129.60715435 C-227.56969263 115.60592121 -227.55770187 101.60475601 -227.5281899 87.6035519 C-227.51420439 80.85211604 -227.50520032 74.100769 -227.50897253 67.34931672 C-227.51225732 61.170688 -227.50170454 54.99224423 -227.48002695 48.81365409 C-227.474587 46.57699652 -227.47419608 44.34031987 -227.47932882 42.10366157 C-227.48553002 39.06526588 -227.47331949 36.02747512 -227.45650995 32.98913205 C-227.4626759 32.11937624 -227.46884186 31.24962043 -227.47519466 30.35350838 C-227.39331823 22.25973475 -225.46530013 14.40975756 -220.07060659 8.18511117 C-212.28369429 2.56269652 -206.25121277 1.04949131 -196.72650564 0.98276436 C-195.46888397 0.96836541 -195.46888397 0.96836541 -194.18585581 0.95367557 C-191.37541262 0.92283327 -188.56495654 0.89897304 -185.75444448 0.87529671 C-183.73779081 0.85508133 -181.72114033 0.8345457 -179.70449293 0.81371415 C-174.20276092 0.75853638 -168.70098852 0.71024993 -163.19917595 0.66387689 C-159.71661614 0.6342094 -156.23407396 0.60294118 -152.75153196 0.5712558 C-101.83472958 0.11148917 -50.91862286 -0.0028188 0 0 Z " fill="#F7F7F7" transform="translate(497.0706065893173,209.8148888349533)"/>
  <path d="M0 0 C1.30685393 -0.00382555 2.61370785 -0.00765109 3.96016341 -0.01159257 C7.54442882 -0.02177295 11.1285931 -0.01971659 14.71286643 -0.01541197 C18.59494997 -0.01292657 22.47701028 -0.02198099 26.35908508 -0.02944946 C33.9462061 -0.0421463 41.53329164 -0.04399663 49.12042149 -0.0416492 C55.28895211 -0.03986104 61.45747202 -0.0416263 67.62600136 -0.04587364 C68.50626878 -0.04646883 69.38653621 -0.04706402 70.2934784 -0.04767724 C72.08207688 -0.04888907 73.87067536 -0.0501032 75.65927384 -0.05131962 C92.40005048 -0.06217482 109.14080692 -0.06004165 125.88158468 -0.05393478 C141.18279019 -0.04876162 156.48393211 -0.06003518 171.78512504 -0.07903299 C187.52105007 -0.09841999 203.25694502 -0.10666625 218.99288207 -0.10290974 C227.81773176 -0.10099975 236.64252726 -0.10346601 245.46736717 -0.11762428 C252.97587907 -0.12954967 260.4843034 -0.1309296 267.99281653 -0.11883412 C271.82006211 -0.11295494 275.64714758 -0.11181946 279.4743824 -0.12383652 C283.6300205 -0.13673286 287.78527924 -0.12620895 291.94091797 -0.11352539 C293.74035033 -0.12458682 293.74035033 -0.12458682 295.57613486 -0.13587171 C321.16552478 0.02812634 335.01054135 15.8313428 351.88545227 32.73335266 C353.37882171 34.22604694 354.87233943 35.71859288 356.36599731 37.21099854 C359.47982102 40.32335615 362.59184992 43.43749413 365.70259094 46.55293274 C369.67324723 50.5292956 373.64839051 54.50113775 377.62488842 58.47165775 C380.70404535 61.54718808 383.7808005 64.62511228 386.85685158 67.7037487 C388.321224 69.16878407 389.78632816 70.63308845 391.25220299 72.09662056 C393.30451273 74.14636801 395.35355165 76.19933284 397.40180969 78.25312805 C398.29426895 79.14255096 398.29426895 79.14255096 399.20475769 80.04994202 C402.84752975 83.71081979 406.27357013 87.50873453 409.65266705 91.41354275 C411.76726355 93.813804 414.00351011 96.06060827 416.29389954 98.29292297 C417.67552025 99.64538116 417.67552025 99.64538116 419.08505249 101.02516174 C419.56548571 101.49336586 420.04591892 101.96156998 420.54091072 102.4439621 C423.1400552 104.98109576 425.72304404 107.53463701 428.3092804 110.08491516 C431.57519256 113.30308839 434.84545191 116.51648447 438.13130188 119.71430969 C440.81116087 122.32322155 443.47551701 124.94714733 446.1307354 127.58112335 C447.13345651 128.57042175 448.1415164 129.554344 449.15535164 130.53224945 C457.03385999 138.13897425 464.83640276 147.29550227 465.40418202 158.77086759 C465.4038023 159.72320617 465.40342258 160.67554476 465.40303135 161.6567421 C465.4050224 162.7584925 465.40701345 163.86024291 465.40906483 164.99537969 C465.40615199 166.20548609 465.40323915 167.41559248 465.40023804 168.66236877 C465.40109246 169.94802191 465.40194689 171.23367506 465.4028272 172.55828738 C465.4050661 176.12935539 465.40105911 179.70039348 465.39604914 183.27145767 C465.39173618 187.12145742 465.39319167 190.97145543 465.39395142 194.82145691 C465.39447611 201.49268749 465.39133496 208.16390829 465.38571358 214.83513641 C465.37759126 224.4806472 465.3749826 234.12615326 465.37372559 243.77166709 C465.37153622 259.42035663 465.36487926 275.06904095 465.35542297 290.71772766 C465.34624588 305.92020135 465.3391665 321.12267363 465.33491516 336.32514954 C465.33465244 337.26201525 465.33438971 338.19888097 465.33411903 339.16413656 C465.332814 343.86405239 465.33155029 348.56396822 465.33030713 353.26388407 C465.31993811 392.26282516 465.30232292 431.26176044 465.27998352 470.26069641 C466.16476379 470.25344543 467.04954407 470.24619446 467.96113586 470.23872375 C469.12596497 470.23308411 470.29079407 470.22744446 471.49092102 470.22163391 C473.22027893 470.21075745 473.22027893 470.21075745 474.98457336 470.19966125 C485.25521182 470.38988644 494.50602348 474.48138101 502.09248352 481.44819641 C509.82263902 489.81014347 513.53301097 499.91604115 513.69404602 511.11225891 C513.72309525 512.39343094 513.72309525 512.39343094 513.75273132 513.70048523 C513.81217236 516.42878852 513.85854008 519.15714441 513.90498352 521.88569641 C513.94324132 523.66435974 513.98229734 525.44300608 514.02217102 527.22163391 C514.13653707 532.56771074 514.21268333 537.91384783 514.27998352 543.26069641 C514.2935791 544.16854889 514.30717468 545.07640137 514.32118225 546.01176453 C514.35872587 548.69499947 514.38370733 551.37806939 514.40498352 554.06147766 C514.42330734 555.26068344 514.42330734 555.26068344 514.44200134 556.4841156 C514.49658589 569.31385044 510.97199931 582.92306871 502.17451477 592.56929016 C493.54473862 600.66434696 484.28438186 604.59705744 472.34248352 604.38569641 C471.65863586 604.37667297 470.97478821 604.36764954 470.2702179 604.35835266 C468.60665065 604.33508599 466.94326721 604.29922808 465.27998352 604.26069641 C465.15623352 606.14788391 465.15623352 606.14788391 465.02998352 608.07319641 C463.51168 621.32195454 456.54973739 632.8798437 446.27998352 641.26069641 C433.88172109 649.3237556 420.31937851 649.70051781 406.0617218 649.64164734 C404.22850326 649.6451086 402.3952868 649.6498763 400.56207466 649.65582907 C395.54999823 649.66830431 390.53809408 649.66218453 385.52601719 649.65287042 C380.11080342 649.646066 374.69561871 649.65656806 369.28041077 649.66481018 C358.68206125 649.67813484 348.08377556 649.67527541 337.48542356 649.66657226 C328.87024634 649.65979114 320.25508697 649.65888085 311.63990784 649.66214371 C309.79915308 649.66283326 309.79915308 649.66283326 307.92121136 649.66353673 C305.42807054 649.66449593 302.93492972 649.66546857 300.44178891 649.66645451 C277.07550895 649.67500469 253.70926433 649.66518009 230.34299016 649.64905341 C210.30308922 649.63565058 190.26324315 649.63797877 170.2233429 649.65180969 C146.93943104 649.66787205 123.65555015 649.67418075 100.37163353 649.6649729 C97.88777543 649.66401728 95.40391732 649.66307416 92.9200592 649.66214371 C91.69802264 649.66168088 90.47598608 649.66121805 89.21691811 649.6607412 C80.61425477 649.65815329 72.0116111 649.66251804 63.40895081 649.66958237 C52.92209365 649.67800484 42.43530384 649.67570146 31.94845438 649.65974014 C26.60014293 649.65186754 21.25194368 649.64874864 15.90363312 649.65868759 C11.00348572 649.66765584 6.10355407 649.66266654 1.20342612 649.64675494 C-0.56492089 649.64341616 -2.3332863 649.64508077 -4.10162139 649.6523823 C-20.98593025 649.71672619 -33.96638927 647.35144695 -46.97001648 635.69819641 C-57.89176613 624.21462837 -60.88002654 608.77848803 -60.85423756 593.53566456 C-60.85658979 592.58146255 -60.85894202 591.62726054 -60.86136553 590.64414331 C-60.86802334 587.44623253 -60.86759828 584.24836267 -60.8671875 581.05044556 C-60.8704881 578.73466769 -60.87421409 576.41889039 -60.87832898 574.10311383 C-60.88833428 567.73860127 -60.89206339 561.37409814 -60.89471829 555.00957882 C-60.89774385 548.85066171 -60.90637186 542.69175102 -60.91426222 536.53283863 C-60.93508022 520.03727879 -60.94557152 503.54171719 -60.95439183 487.04614728 C-60.95860137 479.24067534 -60.96382289 471.43520417 -60.96907636 463.62973287 C-60.9869626 436.90319065 -61.00195876 410.17664821 -61.00939655 383.4501009 C-61.00987131 381.77308448 -61.0103472 380.09606807 -61.01082421 378.41905166 C-61.01106059 377.5874196 -61.01129697 376.75578754 -61.01154051 375.89895451 C-61.01274168 371.68563215 -61.01395714 367.47230979 -61.0151825 363.25898743 C-61.01542265 362.42284879 -61.01566279 361.58671016 -61.01591022 360.72523399 C-61.02380434 333.61152767 -61.04724052 306.49786508 -61.07973844 279.38417786 C-61.11404657 250.70778532 -61.13374849 222.03141837 -61.13704079 193.35500497 C-61.13745832 190.20629671 -61.13793789 187.05758847 -61.13846397 183.90888023 C-61.13858717 183.13359817 -61.13871036 182.3583161 -61.13883728 181.55954063 C-61.1411678 169.09160277 -61.15681918 156.62371579 -61.17730582 144.15579605 C-61.19757481 131.62141017 -61.20303599 119.08708531 -61.19353519 106.55268607 C-61.18878278 99.76428656 -61.19091217 92.97606187 -61.21029663 86.18768311 C-61.22789698 79.97042359 -61.2269556 73.75344985 -61.21139934 67.53618743 C-61.20901859 65.28990787 -61.21337091 63.04360868 -61.22522799 60.79735915 C-61.31550765 42.56146313 -59.51552547 27.65063024 -46.72001648 13.57319641 C-33.45224656 1.03882081 -17.43261936 -0.05522834 0 0 Z M84.59546185 23.27496243 C68.66969478 23.33710271 52.74425232 23.42086044 36.81878471 23.53697777 C32.21931565 23.57013501 27.61988315 23.59674033 23.02034187 23.61751747 C17.66701655 23.64216164 12.31398515 23.68107818 6.96083951 23.73120332 C5.00633978 23.74721627 3.05179238 23.75830899 1.09723544 23.76403594 C-1.57609961 23.77276735 -4.24866386 23.79978378 -6.92181396 23.83129883 C-8.06950757 23.82870449 -8.06950757 23.82870449 -9.2403869 23.82605773 C-17.03065205 23.95769941 -24.76057781 26.09584957 -30.72001648 31.26069641 C-36.6027067 39.40808428 -37.87000089 45.74917987 -37.85982418 55.57252598 C-37.8627756 56.51850093 -37.86572703 57.46447589 -37.86876789 58.43911675 C-37.87746932 61.62709335 -37.87904048 64.81503372 -37.88064575 68.00302124 C-37.88537601 70.30454848 -37.89052682 72.6060749 -37.89606339 74.90760034 C-37.9099817 81.24661408 -37.91755652 87.58562207 -37.92403638 93.92464721 C-37.93074453 100.05467016 -37.94302819 106.18468338 -37.95451137 112.31469884 C-37.98635591 129.51969217 -38.00619657 146.72469451 -38.02379689 163.92970744 C-38.02856566 168.5899452 -38.03357416 173.25018269 -38.03860211 177.91042018 C-38.06964793 206.84136057 -38.09626349 235.77230327 -38.1130209 264.70325565 C-38.11695808 271.40526394 -38.12096994 278.10727219 -38.12504578 284.8092804 C-38.12554744 285.64191392 -38.12604911 286.47454745 -38.12656598 287.33241229 C-38.14298367 314.32767624 -38.18144081 341.32284954 -38.23233288 368.3180689 C-38.28456289 396.07359754 -38.31733658 423.82907791 -38.32459843 451.58465669 C-38.32562701 455.50547795 -38.32686332 459.42629912 -38.32821846 463.34712029 C-38.3284765 464.11875983 -38.32873454 464.89039937 -38.32900039 465.68542192 C-38.33369367 478.09889377 -38.3586213 490.51224605 -38.39096989 502.92567316 C-38.42301718 515.40553458 -38.43297211 527.88526148 -38.42053794 540.36515916 C-38.41439748 547.12514477 -38.41862075 553.88473333 -38.44870758 560.64466667 C-38.47603443 566.83496894 -38.47559715 573.02462952 -38.45319713 579.21494585 C-38.44997007 581.45255503 -38.45686639 583.69020691 -38.47499435 585.92774499 C-38.79295569 602.56219352 -38.79295569 602.56219352 -31.72001648 617.26069641 C-25.04136472 623.86972359 -17.27805923 626.63476951 -7.95160007 626.63821983 C-7.20893476 626.64258016 -6.46626945 626.64694048 -5.70109913 626.65143293 C-3.22264294 626.66234582 -0.74474813 626.65198598 1.73370361 626.64164734 C3.53260967 626.64510548 5.3315136 626.64987109 7.13041312 626.65582907 C12.06610678 626.66834735 17.00162632 626.66216485 21.93732059 626.65287042 C27.26324889 626.64608365 32.58914723 626.65655935 37.91506958 626.66481018 C48.34585354 626.67815392 58.77657275 626.67526682 69.20735925 626.66657226 C77.68488149 626.65979829 86.16238558 626.65887775 94.63990974 626.66214371 C95.84628482 626.66260341 97.05265989 626.66306311 98.29559179 626.66353673 C100.74629994 626.66449591 103.19700809 626.66546855 105.64771623 626.66645451 C128.63141964 626.67501038 151.61508717 626.66517136 174.59878469 626.64905341 C194.31960267 626.63565176 214.04036767 626.63797669 233.76118469 626.65180969 C256.6608591 626.66786495 279.56050204 626.67418459 302.4601813 626.6649729 C304.90220137 626.66401725 307.34422145 626.66307414 309.78624153 626.66214371 C310.9877673 626.66168088 312.18929306 626.66121805 313.4272287 626.6607412 C321.89399773 626.65815103 330.3607468 626.66252295 338.82751274 626.66958237 C349.14656915 626.67799702 359.4655571 626.67571798 369.78460567 626.65974014 C375.04948232 626.65185675 380.31424484 626.64876704 385.57912064 626.65868759 C390.39970397 626.66763356 395.22006747 626.66270311 400.04063088 626.64675494 C401.7834722 626.64340672 403.52633213 626.64510212 405.26916146 626.6523823 C421.18563916 626.815413 421.18563916 626.815413 434.70576477 619.07319641 C438.58886361 614.60233323 441.27998352 610.2265506 441.27998352 604.26069641 C440.14599467 604.25922985 439.01200583 604.25776329 437.84365368 604.25625229 C410.23379537 604.21963509 382.62405816 604.16015625 355.01430035 604.07679367 C341.66234198 604.03700754 328.31046157 604.00461283 314.95845032 603.98970032 C303.31899034 603.97668167 291.67965998 603.9497113 280.04027301 603.90608335 C273.87898012 603.88347362 267.71784708 603.86778546 261.55650902 603.86881256 C255.75262058 603.86955944 249.94908547 603.85159677 244.14528847 603.81952858 C242.01973711 603.81103737 239.89414609 603.80927432 237.76858521 603.81489372 C222.35060067 603.85021291 209.28754665 602.75447839 197.52998352 591.60054016 C187.40081999 580.48378319 185.80766882 566.78518529 185.88154602 552.28413391 C185.87951895 550.86409863 185.87660228 549.44406436 185.87284851 548.02403259 C185.86845771 545.0673366 185.87475209 542.11091488 185.88887024 539.1542511 C185.90599211 535.38754224 185.8960818 531.6214735 185.87815285 527.85478783 C185.8672533 524.92917658 185.87078887 522.00371431 185.87853622 519.0780983 C185.8805196 517.68999274 185.8781454 516.30187311 185.87109756 514.91378403 C185.82259267 502.68461843 187.8098023 493.15910809 195.27998352 483.26069641 C204.92746354 473.93280165 216.72806861 470.95203044 229.79025269 470.98222351 C230.70230469 470.97643784 231.61435669 470.97065216 232.55404663 470.96469116 C235.59627341 470.94776401 238.63834825 470.94483176 241.68061829 470.94184875 C243.90445031 470.93243217 246.12827883 470.9221522 248.35210323 470.91108131 C254.29368074 470.88387608 260.23523357 470.86844816 266.17685699 470.85549927 C271.75744891 470.84154145 277.33797409 470.8169096 282.91853333 470.79316711 C299.22647878 470.72997944 315.53448682 470.68387635 331.84248352 470.63569641 C368.28685852 470.51194641 404.73123352 470.38819641 442.27998352 470.26069641 C442.27998352 368.62069641 442.27998352 266.98069641 442.27998352 162.26069641 C410.26998352 161.93069641 378.25998352 161.60069641 345.27998352 161.26069641 C333.48518692 158.6396305 322.82431332 153.95975438 315.56123352 143.87397766 C308.79976462 133.05231297 307.15898256 123.22487843 307.07466125 110.63179016 C307.06476166 109.70403275 307.05486206 108.77627533 307.04466248 107.82040405 C307.01328868 104.77969338 306.98838627 101.73896712 306.96357727 98.69819641 C306.94298687 96.5797029 306.92198987 94.4612133 306.90060425 92.34272766 C306.84559894 86.78618047 306.79609527 81.22959754 306.74775696 75.67298889 C306.69738397 69.99516139 306.64178063 64.31738535 306.58662415 58.63960266 C306.47930631 47.51334461 306.37780353 36.38704174 306.27998352 25.26069641 C301.14275986 23.56938191 296.54690818 22.97525651 291.12765503 23.01345825 C289.93630751 23.00983663 289.93630751 23.00983663 288.72089237 23.00614184 C286.06936208 23.00052611 283.41807511 23.00915533 280.76655579 23.01777649 C278.85547318 23.01670225 276.94439089 23.01476145 275.03330994 23.01202393 C269.8181982 23.00716345 264.60317181 23.01487139 259.38807034 23.02497697 C253.81932271 23.0338599 248.25057701 23.03199726 242.68182373 23.03161621 C233.22649253 23.03255604 223.77119315 23.04123953 214.31587219 23.05488586 C204.84060532 23.06851887 195.36536777 23.07591299 185.89009094 23.07539368 C152.12487729 23.07392309 118.36041634 23.14422868 84.59546185 23.27496243 Z " fill="#1E3B61" transform="translate(307.7200164794922,186.7393035888672)"/>
  <path d="M0 0 C0.88937995 -0.00205263 1.77875991 -0.00410527 2.69509077 -0.0062201 C5.67855738 -0.01187946 8.66197766 -0.01043416 11.64544868 -0.00901413 C13.80489503 -0.01159838 15.96434089 -0.01461171 18.12378609 -0.01801753 C24.06097885 -0.02608388 29.99815951 -0.0278769 35.93535709 -0.028615 C42.33780364 -0.03046622 48.74024392 -0.03801397 55.14268684 -0.04475021 C69.87520643 -0.05904037 84.60772354 -0.06486011 99.34024885 -0.06944216 C106.62459365 -0.07177962 113.90893766 -0.07538247 121.19328185 -0.07913754 C146.14073514 -0.09197286 171.088188 -0.10269136 196.03564453 -0.10614014 C197.60127433 -0.10636177 199.16690414 -0.10658355 200.73253394 -0.10680549 C202.30189574 -0.10702613 203.87125755 -0.10724661 205.44061935 -0.10746694 C208.58890271 -0.10790948 211.73718607 -0.1083566 214.88546944 -0.10880661 C215.66605874 -0.108916 216.44664805 -0.10902539 217.25089158 -0.1091381 C242.54874715 -0.11276691 267.84657404 -0.12868043 293.14441863 -0.15199697 C319.90625347 -0.17661762 346.66807192 -0.19031404 373.42991841 -0.19150805 C376.3703239 -0.1916795 379.31072939 -0.19189493 382.25113487 -0.19214249 C383.33710834 -0.19222614 383.33710834 -0.19222614 384.44502066 -0.19231148 C396.07443401 -0.19346007 407.70381784 -0.20446586 419.33322124 -0.21902954 C431.03324092 -0.23342774 442.73321421 -0.23636127 454.43324129 -0.22858956 C460.76641637 -0.22468901 467.0994925 -0.22558368 473.43265533 -0.23964691 C479.23871679 -0.25242139 485.04460532 -0.25115712 490.85066666 -0.2390562 C492.94294151 -0.23710533 495.03522876 -0.24014916 497.12748621 -0.24890056 C534.15477851 -0.39387971 572.9103476 10.72416365 599.95578194 37.17049026 C602.02784016 39.28777951 602.02784016 39.28777951 604.98703194 41.13142776 C604.98703194 41.79142776 604.98703194 42.45142776 604.98703194 43.13142776 C605.54132881 43.34412308 606.09562569 43.55681839 606.66671944 43.77595901 C609.77874146 45.59392474 611.84080726 48.07913402 614.11203194 50.81892776 C614.59067696 51.39344681 615.06932198 51.96796585 615.56247139 52.55989456 C639.73330594 82.11794063 650.50324229 116.95941109 650.36798286 154.78874588 C650.37144696 156.92255124 650.37621653 159.0563548 650.3821646 161.19015467 C650.39460119 167.00553729 650.38853784 172.82077079 650.37920594 178.6361537 C650.37238542 184.9266771 650.38291156 191.21717583 650.39114571 197.50769424 C650.40368614 209.10265012 650.40263989 220.69754611 650.3944113 232.29250343 C650.38684492 243.00785573 650.38490367 253.7231908 650.38847923 264.43854523 C650.38882297 265.50744744 650.38882297 265.50744744 650.38917364 266.59794364 C650.39010776 269.49112694 650.39106297 272.38431023 650.39205293 275.2774935 C650.40121704 302.38350746 650.3929304 329.4894915 650.37676224 356.59550084 C650.36252994 380.63874252 650.36379823 404.68193651 650.37814522 428.72517776 C650.39423597 455.78068797 650.40056389 482.83617176 650.39130843 509.89168608 C650.39034638 512.78001697 650.38940785 515.66834787 650.38847923 518.55667877 C650.38812338 519.62333377 650.38812338 519.62333377 650.38776035 520.71153735 C650.3843587 531.41460193 650.38831866 542.11764731 650.39591789 552.82070923 C650.40452342 565.00130416 650.40200588 577.18182857 650.38607566 589.36241983 C650.37822263 595.57047191 650.37505044 601.77842756 650.38502312 607.98647881 C650.39403246 613.68124242 650.3889354 619.37582118 650.37309046 625.07056828 C650.36976885 627.11882291 650.37137679 629.16709351 650.37871782 631.21533768 C650.52714142 676.10915467 634.90138658 716.04445675 603.15500069 748.03377151 C584.77138391 765.56233634 562.38055916 778.20741888 537.98703194 785.13142776 C536.98156319 785.43435745 535.97609444 785.73728714 534.94015694 786.04939651 C518.16672094 790.71658139 500.86073406 791.57608078 483.55859566 791.50564957 C481.48621158 791.50839801 479.4138289 791.51245675 477.34144962 791.51769322 C471.70965398 791.52817432 466.07801951 791.52022049 460.44623113 791.50894272 C454.3479372 791.50003492 448.2496629 791.50856314 442.15136909 791.51480484 C430.9162366 791.52371233 419.68115646 791.51916105 408.44603133 791.50764102 C398.06229275 791.49706766 387.67857233 791.49257025 377.29482841 791.49393654 C376.60366373 791.49402057 375.91249905 791.4941046 375.20038998 791.49419118 C372.39407857 791.49454348 369.58776716 791.4949275 366.78145575 791.49535675 C340.50156831 791.49931421 314.22171291 791.48664039 287.94183463 791.46583019 C264.643253 791.44746738 241.34470207 791.4416477 218.04611397 791.44710159 C216.55020456 791.44744803 215.05429515 791.44779413 213.55838574 791.44813988 C212.81880262 791.44831088 212.07921949 791.44848187 211.31722475 791.44865805 C207.59348823 791.44951173 203.8697517 791.4503355 200.14601517 791.45112705 C199.41122162 791.45128413 198.67642807 791.45144121 197.91936805 791.45160305 C178.39675506 791.45560219 158.87414498 791.45010522 139.35153377 791.44161576 C137.24827863 791.44070881 135.1450235 791.43980316 133.04176836 791.43890053 C131.64678678 791.43829942 130.25180521 791.4376908 128.85682364 791.43707462 C119.17108696 791.43286958 109.48535608 791.43226814 99.79961878 791.43418012 C87.30991839 791.43663359 74.82024526 791.43225546 62.33055128 791.41697011 C56.31655163 791.40976688 50.3025946 791.40561397 44.28859138 791.41021347 C38.76776381 791.41433282 33.24702368 791.40900442 27.72620927 791.39658739 C25.7446125 791.39369405 23.76300731 791.39404068 21.78141285 791.39823047 C4.02523016 791.43232196 -14.63997097 791.42486956 -31.82546806 786.50642776 C-32.76720879 786.24772903 -33.70894951 785.9890303 -34.67922783 785.72249222 C-60.78766694 778.2260534 -84.13017861 763.51113273 -103.01296806 744.13142776 C-103.56984306 743.61966995 -104.12671806 743.10791214 -104.70046806 742.58064651 C-119.87406655 728.29421407 -130.72933173 708.90246674 -137.29516757 689.27606797 C-137.83105994 687.67493181 -138.38252416 686.07899188 -138.94192255 684.4859159 C-148.04256986 658.15243897 -146.58455909 630.430851 -146.50654864 602.94839454 C-146.49325542 596.70039177 -146.50332129 590.45241755 -146.51031303 584.20441055 C-146.51918671 573.40451467 -146.51352568 562.60473222 -146.49701881 551.80485153 C-146.47971922 540.48335626 -146.46998017 529.16189834 -146.47035408 517.84038925 C-146.47036937 517.13301233 -146.47038466 516.42563541 -146.47040042 515.69682282 C-146.47048225 512.82473043 -146.47061349 509.95263804 -146.47081204 507.08054565 C-146.47261909 480.20894943 -146.45280921 453.33740988 -146.42195271 426.46583331 C-146.39467482 402.62274849 -146.38223189 378.77970384 -146.38357353 354.93660355 C-146.38365436 353.40369216 -146.38373507 351.87078077 -146.38381569 350.33786938 C-146.38385639 349.58000172 -146.38389709 348.82213407 -146.38393903 348.04130073 C-146.38414064 344.22581161 -146.3843218 340.4103225 -146.38447952 336.59483337 C-146.38451295 335.84199089 -146.38454638 335.08914841 -146.38458082 334.31349252 C-146.38531171 314.34403994 -146.3762287 294.37459237 -146.36382639 274.40514398 C-146.36338585 273.6945528 -146.36294531 272.98396162 -146.36249141 272.25183738 C-146.36071513 269.39486145 -146.3589383 266.53788552 -146.3571095 263.68090962 C-146.3508034 253.76378683 -146.3477728 243.84666798 -146.34688652 233.92954332 C-146.34569044 221.15567828 -146.33743774 208.38185445 -146.31802361 195.60800102 C-146.30880861 189.45331503 -146.30268895 183.29866957 -146.30521202 177.14397621 C-146.30741144 171.50538959 -146.30030863 165.86689243 -146.28591497 160.22832444 C-146.28230637 158.19387589 -146.28201 156.15941806 -146.28544955 154.12496921 C-146.30177829 143.26001747 -145.99384328 132.84764075 -144.01296806 122.13142776 C-143.86815227 121.3360607 -143.72333647 120.54069364 -143.57413232 119.72122455 C-141.54781143 109.3694476 -138.36466442 99.72951533 -134.01296806 90.13142776 C-133.7243792 89.48850784 -133.43579033 88.84558792 -133.13845634 88.18318558 C-126.21209423 72.98189976 -117.11888191 59.501691 -105.41775322 47.57136917 C-103.98521107 46.10297613 -102.5826069 44.60973607 -101.18093681 43.11189651 C-89.54180024 30.85593481 -75.95984704 21.88653471 -61.01296806 14.13142776 C-60.07066338 13.63900589 -59.12835869 13.14658401 -58.15749931 12.63924026 C-44.9381282 6.19954662 -30.44780314 3.32481133 -16.01296806 1.13142776 C-14.96538885 0.95721463 -13.91780964 0.7830015 -12.8384856 0.60350919 C-8.5246617 0.07116916 -4.34032977 -0.00937702 0 0 Z M462.24942423 24.14739783 C457.08422013 24.15053207 451.9190187 24.15611623 446.7538166 24.16156387 C445.66975078 24.1626855 444.58568496 24.16380713 443.46876866 24.16496275 C441.21930447 24.16729331 438.9698403 24.16963716 436.72037613 24.17199361 C433.20101241 24.17567767 429.68164863 24.17931403 426.16228485 24.18294907 C397.16407494 24.21309068 368.1658755 24.24829752 339.16768074 24.29040909 C338.13868089 24.29190244 338.13868089 24.29190244 337.08889316 24.29342596 C322.218813 24.31503384 307.34873395 24.33732316 292.47865603 24.36041405 C285.21850872 24.37168661 277.95836121 24.38282018 270.69821358 24.39387894 C269.61488386 24.39553279 269.61488386 24.39553279 268.5096687 24.39722004 C245.06402532 24.43294387 221.61838345 24.45890193 198.17272257 24.47981745 C174.00018082 24.50143232 149.82767086 24.53281423 125.6551583 24.5764189 C122.23757905 24.58257963 118.81999961 24.58863023 115.40242004 24.59461403 C114.72998028 24.59579491 114.05754051 24.59697579 113.36472379 24.59819246 C103.25060643 24.61568874 93.13650413 24.62470733 83.0223732 24.62904167 C71.51721708 24.63404088 60.0121295 24.6490652 48.50700546 24.67709342 C42.64521749 24.69105433 36.78352613 24.70029929 30.9217205 24.69643593 C25.54372289 24.69299894 20.16593088 24.70354271 14.7879753 24.72466328 C12.85506816 24.72988467 10.9221394 24.73021579 8.98923273 24.72482339 C-6.88221072 24.68509459 -23.80616226 25.18342002 -38.70046806 31.25642776 C-39.46826591 31.55573196 -40.23606377 31.85503616 -41.02712822 32.16341019 C-54.66792177 37.64351155 -66.80521163 44.63138326 -78.01296806 54.13142776 C-78.52166435 54.55649612 -79.03036064 54.98156448 -79.55447197 55.4195137 C-103.6727634 75.73850534 -119.02678583 105.11691475 -121.79850805 136.54345429 C-122.27951797 144.59087908 -122.1612874 152.66022699 -122.16013908 160.71918106 C-122.16344223 162.82219449 -122.16716874 164.92520728 -122.17128056 167.02821928 C-122.18125702 172.79095933 -122.18501029 178.55368896 -122.18766987 184.31643641 C-122.19158577 190.53822876 -122.20116301 196.76001296 -122.20988274 202.98180008 C-122.22867652 217.28775345 -122.23889654 231.59370492 -122.24734342 245.89966736 C-122.25155735 252.97666248 -122.25677828 260.05365675 -122.26202795 267.13065117 C-122.27991242 291.37943529 -122.29490668 315.62821967 -122.30234814 339.87700939 C-122.30282289 341.39774856 -122.30329877 342.91848773 -122.3037758 344.4392269 C-122.30401217 345.19333455 -122.30424855 345.9474422 -122.30449209 346.72440159 C-122.30569322 350.54472868 -122.30690869 354.36505576 -122.30813408 358.18538284 C-122.30837423 358.94352053 -122.30861438 359.70165821 -122.30886181 360.48276977 C-122.31675172 385.05390839 -122.34018016 409.6249987 -122.37269002 434.19611623 C-122.40703837 460.20447638 -122.42670381 486.21280827 -122.42999238 512.22119147 C-122.43040988 515.07986137 -122.43088944 517.93853127 -122.43141556 520.79720116 C-122.43153875 521.50103109 -122.43166194 522.20486102 -122.43178887 522.93001913 C-122.43411443 534.22389258 -122.449738 545.51770959 -122.4702574 556.81156297 C-122.49057888 568.17733317 -122.49563118 579.54301676 -122.48648677 590.9088087 C-122.48195317 597.05811608 -122.48377383 603.20724131 -122.50324821 609.35652351 C-122.52095919 614.99794047 -122.51981805 620.63904346 -122.50435092 626.28046412 C-122.5019869 628.30941833 -122.50623493 630.33839474 -122.51817957 632.36731517 C-122.72850212 670.48747803 -109.07108321 703.76662276 -82.25515556 730.92439651 C-58.0502348 753.6826675 -26.10630548 766.3380032 7.07965088 766.26285553 C7.94120285 766.26490816 8.80275482 766.2669608 9.69041443 766.26907563 C12.56118273 766.2747048 15.43190244 766.27329347 18.30267525 766.27186966 C20.38832629 766.27445564 22.47397683 766.27746945 24.5596267 766.28087306 C30.27902133 766.28891897 35.99840339 766.29073129 41.717803 766.29147053 C47.89121332 766.2933253 54.06461719 766.30087479 60.23802376 766.30760574 C74.43547608 766.32187984 88.63292425 766.32771353 102.83038202 766.33229769 C109.85332557 766.33463704 116.8762683 766.33824007 123.89921122 766.34199307 C147.961432 766.35482613 172.02365234 766.36554518 196.08587646 766.36899567 C197.59516581 766.3692173 199.10445516 766.36943908 200.6137445 766.36966102 C202.12658132 766.36988166 203.63941813 766.37010214 205.15225494 766.37032247 C208.18702436 766.37076501 211.22179377 766.37121212 214.25656319 766.37166214 C215.00900439 766.37177153 215.76144559 766.37188092 216.53668804 766.37199363 C240.92049306 766.37562218 265.30426831 766.39153587 289.68806193 766.4148525 C315.49612863 766.43948575 341.30417833 766.45317014 367.11225712 766.45436358 C369.94903636 766.45453502 372.7858156 766.45475045 375.62259483 766.45499802 C376.32103866 766.45505379 377.01948249 766.45510955 377.73909129 766.45516701 C388.9465334 766.45631445 400.1539448 766.46731023 411.36137656 766.48188507 C422.64100064 766.49629938 433.92058621 766.49920823 445.20022051 766.49144509 C451.30290918 766.48755043 457.40549518 766.48841021 463.50817108 766.50250244 C469.10702448 766.51531241 474.70569881 766.51398201 480.30455221 766.50191173 C482.3180565 766.49996695 484.33157378 766.50297595 486.34505986 766.51175609 C502.83081138 766.57902917 519.42117263 765.47592663 535.23703194 760.44392776 C536.46413887 760.06264725 536.46413887 760.06264725 537.71603584 759.67366409 C545.92552519 757.00920869 553.51205371 753.42342292 560.98703194 749.13142776 C561.58709053 748.78740921 562.18714912 748.44339066 562.80539131 748.0889473 C589.70334721 732.35936295 608.58445016 708.38395588 618.98703194 679.13142776 C619.35417305 678.10638138 619.35417305 678.10638138 619.72873116 677.06062698 C625.44035484 660.8050606 626.28263816 645.24641922 626.24772835 628.17618179 C626.25075308 626.06986582 626.25464417 623.96355095 626.25932091 621.85723799 C626.26956826 616.09932725 626.26742742 610.341479 626.26314032 604.58356321 C626.26066714 598.3618404 626.26969465 592.14013241 626.27717781 585.91841507 C626.28991073 573.74050886 626.29172599 561.56263166 626.28937755 549.38472126 C626.28754147 539.48246935 626.28931109 529.5802239 626.29360199 519.67797279 C626.2942044 518.25289502 626.2948056 516.82781724 626.29540559 515.40273946 C626.2963129 513.25499743 626.29722157 511.1072554 626.29813794 508.95951338 C626.30656209 489.00222189 626.31090694 469.04493283 626.30673122 449.08763981 C626.30657485 448.33600159 626.30641847 447.58436337 626.30625736 446.80994824 C626.30545163 443.00077441 626.30460586 439.19160059 626.30374406 435.38242678 C626.30357297 434.62598011 626.30340188 433.86953345 626.30322561 433.09016416 C626.30287895 431.56044651 626.30253042 430.03072886 626.30218002 428.50101121 C626.29682468 404.70682225 626.30475013 380.91267036 626.32321358 357.11848831 C626.34395766 330.35417557 626.35465164 303.58988579 626.35063809 276.82556456 C626.35024278 273.96836357 626.34988123 271.11116257 626.34954071 268.25396156 C626.34944998 267.55050371 626.34935925 266.84704586 626.34926577 266.1222711 C626.34810272 255.53067162 626.35472577 244.93909542 626.36535263 234.34750175 C626.377436 222.29231655 626.37865094 210.23719642 626.36656246 198.18200586 C626.36068639 192.0368857 626.35953914 185.89186522 626.37156487 179.74675179 C626.38246618 174.11048115 626.37926998 168.47439293 626.36530318 162.83813068 C626.3626679 160.8099608 626.36498559 158.78177644 626.37303904 156.75362084 C626.50939273 119.82215041 615.89378606 88.02098744 589.98703194 61.13142776 C589.13044991 60.18009964 589.13044991 60.18009964 588.25656319 59.20955276 C567.98966517 37.32755491 537.02295943 26.51735047 507.98703194 24.13142776 C504.29270598 24.01090766 500.60339585 24.03670995 496.9075489 24.06616592 C494.47569504 24.0755794 492.04384004 24.08470324 489.61198425 24.09360695 C488.23555258 24.1002187 486.85912104 24.10685922 485.48268962 24.11352515 C477.7383234 24.14778004 469.99385172 24.14343592 462.24942423 24.14739783 Z " fill="#1D3A61" transform="translate(260.0129680633545,117.86857223510742)"/>
  <path d="M0 0 C2.2130599 1.45553328 3.65828016 2.79702908 4.84765625 5.17578125 C4.99770598 6.54924475 5.09603631 7.92863385 5.1640625 9.30859375 C5.20595703 10.11425781 5.24785156 10.91992188 5.29101562 11.75 C5.33033203 12.59175781 5.36964844 13.43351562 5.41015625 14.30078125 C5.45333984 15.15027344 5.49652344 15.99976563 5.54101562 16.875 C5.64719861 18.97506348 5.74794122 21.07540073 5.84765625 23.17578125 C6.82863281 23.37171875 7.80960937 23.56765625 8.8203125 23.76953125 C22.70993319 26.75801982 36.71811945 31.70153332 44.84765625 44.17578125 C46.93958799 48.62539502 47.2230612 51.36186393 45.84765625 56.17578125 C41.21955612 60.80388138 37.15498149 63.45095867 30.59765625 63.67578125 C24.30141004 63.56708112 21.43240504 61.16864649 16.84765625 57.17578125 C15.47217251 56.22885308 14.07624448 55.31083639 12.66015625 54.42578125 C12.04785156 54.0390625 11.43554688 53.65234375 10.8046875 53.25390625 C8.58357219 52.03029782 6.20214038 51.1175749 3.84765625 50.17578125 C4.17765625 66.01578125 4.50765625 81.85578125 4.84765625 98.17578125 C11.11765625 99.82578125 17.38765625 101.47578125 23.84765625 103.17578125 C37.68853338 109.12606488 45.36397558 116.24369632 51.66015625 129.92578125 C56.18377413 142.30620913 54.22926508 154.45886076 48.84765625 166.17578125 C41.19696655 180.98356777 28.86561604 189.13828689 13.37109375 194.34375 C10.87145179 195.03163596 8.38759876 195.65918277 5.84765625 196.17578125 C5.8940625 197.27277344 5.94046875 198.36976563 5.98828125 199.5 C6.02581415 200.95439975 6.06221268 202.40882908 6.09765625 203.86328125 C6.13117188 204.58451172 6.1646875 205.30574219 6.19921875 206.04882812 C6.27057029 209.95532468 6.12300344 211.74512459 3.95703125 215.1328125 C0.25772849 218.71565573 -3.05273512 218.39078849 -7.96484375 218.42578125 C-9.0331543 218.45671875 -9.0331543 218.45671875 -10.12304688 218.48828125 C-14.66440918 218.52188985 -17.55599256 217.99806066 -21.15234375 215.17578125 C-22.30061225 212.87924425 -22.2679555 211.59264958 -22.25 209.04296875 C-22.24677734 208.23730469 -22.24355469 207.43164062 -22.24023438 206.6015625 C-22.22766602 205.33892578 -22.22766602 205.33892578 -22.21484375 204.05078125 C-22.21033203 203.20128906 -22.20582031 202.35179687 -22.20117188 201.4765625 C-22.18937249 199.37627216 -22.17143681 197.27601795 -22.15234375 195.17578125 C-23.89257812 195.04623047 -23.89257812 195.04623047 -25.66796875 194.9140625 C-41.18418014 193.59218784 -53.56878303 189.85816514 -64.2578125 177.80078125 C-68.53121732 172.44360572 -71.71166131 168.27028351 -71.5390625 161.140625 C-70.86962156 157.73932406 -68.80381145 156.22464265 -66.15234375 154.17578125 C-62.80812222 152.10831241 -60.12160137 151.87806091 -56.21484375 151.86328125 C-55.19519531 151.84652344 -54.17554688 151.82976562 -53.125 151.8125 C-47.76826064 152.46713438 -44.44022213 155.68985623 -40.46484375 159.11328125 C-34.17184032 164.22282433 -28.04654289 166.59694142 -20.15234375 168.17578125 C-20.48234375 152.66578125 -20.81234375 137.15578125 -21.15234375 121.17578125 C-26.43234375 119.19578125 -31.71234375 117.21578125 -37.15234375 115.17578125 C-50.82713436 108.62933894 -62.90175787 98.74279132 -68.15234375 84.17578125 C-71.85933957 72.68654916 -68.77859256 59.57762684 -63.90234375 48.98828125 C-57.54928058 37.10918089 -47.4648259 30.14663855 -34.8125 25.88671875 C-30.91556152 24.8452462 -27.17444975 24.43952591 -23.15234375 24.17578125 C-23.21035156 22.94601562 -23.26835937 21.71625 -23.328125 20.44921875 C-23.3750438 18.81644437 -23.42054169 17.18362873 -23.46484375 15.55078125 C-23.50673828 14.74253906 -23.54863281 13.93429687 -23.59179688 13.1015625 C-23.67797714 8.86149363 -23.52232886 6.04227503 -20.8203125 2.65234375 C-15.67286828 -2.12581092 -6.50474848 -2.49092909 0 0 Z " fill="#1E3B61" transform="translate(419.15234375,253.82421875)"/>
  <path d="M0 0 C1.86652924 -0.00967334 1.86652924 -0.00967334 3.77076614 -0.0195421 C5.15403272 -0.01659973 6.5372989 -0.01346429 7.92056465 -0.01015663 C9.38817203 -0.01389216 10.85577742 -0.01849328 12.32337964 -0.02388728 C16.36174158 -0.03614476 20.40002086 -0.03585359 24.43839717 -0.03349853 C28.79159691 -0.03309105 33.1447699 -0.04412281 37.49795723 -0.05361366 C46.02858918 -0.07023949 54.55919349 -0.07572392 63.08984028 -0.07683842 C70.02238316 -0.07778811 76.9549169 -0.08189442 83.88745689 -0.08823967 C103.53359507 -0.10585608 123.17971138 -0.11507787 142.82585751 -0.11357872 C144.41515621 -0.11345885 144.41515621 -0.11345885 146.03656197 -0.11333656 C147.09738496 -0.1132548 148.15820795 -0.11317304 149.25117709 -0.1130888 C166.44786739 -0.1122757 183.64447015 -0.13141848 200.84113513 -0.1596133 C218.48983066 -0.18832141 236.13848347 -0.20215475 253.78720295 -0.20042574 C263.69914516 -0.19976114 273.61099558 -0.20528406 283.52291679 -0.22678185 C291.96141024 -0.24496636 300.3997703 -0.24936347 308.83827482 -0.235763 C313.144856 -0.22921962 317.45118108 -0.22916531 321.75773811 -0.2464695 C325.69945058 -0.26214502 329.6407027 -0.25939362 333.58240356 -0.24190123 C335.00903205 -0.2388191 336.43569443 -0.24250926 337.86228298 -0.25362138 C351.01512229 -0.34929481 351.01512229 -0.34929481 355.96478462 4.25726891 C356.58353462 4.81414391 357.20228462 5.37101891 357.83978462 5.94476891 C359.87060305 10.119229 359.73368387 14.98030761 358.25775337 19.35101891 C356.50570089 21.93410535 354.75368362 22.86227391 351.96478462 24.25726891 C349.04121494 24.63446707 349.04121494 24.63446707 345.74125862 24.63758564 C344.48036447 24.64602558 343.21947031 24.65446552 341.92036724 24.66316122 C340.52363215 24.65736614 339.12689822 24.65128512 337.73016548 24.64494896 C336.24448144 24.64912158 334.75880058 24.65459871 333.27312565 24.66126877 C329.18944552 24.67575139 325.10596673 24.67146993 321.02227545 24.66410196 C316.61866251 24.65937959 312.21509371 24.67187182 307.81149483 24.68211937 C299.18439747 24.69933049 290.55737287 24.70014266 281.9302628 24.69490647 C274.92002387 24.69086815 267.90980646 24.69230428 260.89956856 24.69765472 C259.90255958 24.69840315 258.90555059 24.69915157 257.87832922 24.69992267 C255.85304554 24.70145411 253.82776186 24.70299246 251.80247819 24.70453764 C232.80287329 24.71827082 213.80330954 24.71281904 194.80370557 24.70135242 C177.41240419 24.69141718 160.02120916 24.7043643 142.62992418 24.72828662 C124.78118479 24.75265363 106.93249498 24.76229152 89.08373928 24.75563389 C79.05950834 24.75213659 69.03535922 24.75440748 59.01114082 24.77188492 C50.47858001 24.78657686 41.94615867 24.78728175 33.41360068 24.76981401 C29.05853607 24.76127711 24.70372092 24.75921974 20.34866905 24.77446556 C16.36386555 24.78824283 12.37952685 24.78364008 8.39475071 24.76422632 C6.95134974 24.76044451 5.50791215 24.7634507 4.0645436 24.77383798 C2.1058358 24.78693432 0.14700288 24.77308583 -1.81168938 24.75784016 C-2.90067496 24.75773282 -3.98966055 24.75762548 -5.1116457 24.75751489 C-8.73914139 24.13682158 -10.41076788 22.78534268 -13.03521538 20.25726891 C-15.00517094 16.31735778 -14.48829276 11.55219426 -14.03521538 7.25726891 C-10.61239063 1.2673256 -6.6400578 0.00868867 0 0 Z " fill="#1F3B61" transform="translate(337.0352153778076,500.74273109436035)"/>
  <path d="M0 0 C0.81651187 -0.00583219 1.63302374 -0.01166439 2.47427839 -0.01767331 C3.81157187 -0.01200433 3.81157187 -0.01200433 5.17588139 -0.00622082 C6.60291774 -0.01195914 6.60291774 -0.01195914 8.05878311 -0.01781338 C11.25469641 -0.02815305 14.45043038 -0.02414938 17.64635563 -0.02018261 C19.93437206 -0.02452853 22.22238702 -0.02971128 24.51039982 -0.03567028 C30.731391 -0.04908408 36.95232152 -0.04963632 43.17332435 -0.04710698 C48.36242415 -0.04603892 53.55151159 -0.05091637 58.74060875 -0.0557124 C71.6801161 -0.06745099 84.61958464 -0.06657779 97.55909366 -0.06015559 C108.79755238 -0.05498598 120.03592444 -0.06624255 131.27436601 -0.08525381 C142.8130847 -0.10462346 154.35175211 -0.11259819 165.89048821 -0.10913056 C172.36898578 -0.10731481 178.84740396 -0.10998298 185.32588863 -0.1238451 C191.41699353 -0.13639017 197.50792456 -0.13451078 203.59902668 -0.12143421 C205.83677255 -0.11906167 208.07453054 -0.12182724 210.31226254 -0.13005733 C213.36270896 -0.14046902 216.41256593 -0.13246885 219.46299076 -0.11974621 C220.79693816 -0.13080764 220.79693816 -0.13080764 222.15783399 -0.14209253 C226.90316974 -0.10034348 230.0205916 0.18998714 233.88292789 3.25447559 C236.61745573 6.35360715 237.12573595 8.7342737 236.94542789 12.75447559 C236.70583265 16.24396531 235.88109856 17.25641442 233.42663002 19.8577919 C229.31853711 23.14755805 225.36130535 22.9500608 220.27353764 22.88266468 C218.83168735 22.89330626 218.83168735 22.89330626 217.36070877 22.90416282 C214.14301644 22.92175081 210.92653071 22.9036333 207.70885563 22.88557911 C205.40083612 22.89071756 203.09282052 22.89799827 200.78481388 22.90726185 C194.51835687 22.92579219 188.25232477 22.91282695 181.98588538 22.89317155 C175.43122112 22.87679944 168.87658408 22.88559586 162.321908 22.8906908 C151.31524472 22.89613118 140.30874179 22.87943735 129.30211735 22.85139942 C117.9791289 22.82255602 106.65638246 22.81548194 95.33336735 22.83089161 C81.68433851 22.84944137 68.03548455 22.84771725 54.38645458 22.82867718 C49.17401549 22.82179886 43.96166633 22.82284717 38.74922848 22.83022213 C32.61369776 22.83787385 26.47851635 22.82579477 20.34304523 22.79837322 C18.08918323 22.79147699 15.83528868 22.7914046 13.58142757 22.79858875 C10.50900457 22.8072548 7.43766662 22.79137495 4.36533451 22.76913929 C3.46961859 22.77738006 2.57390266 22.78562082 1.65104383 22.79411131 C-2.47131498 22.7388984 -4.57302076 22.60053294 -8.12769127 20.33949661 C-10.98519055 17.34462205 -11.95568 15.49181506 -12.49207211 11.37947559 C-12.01248755 7.38293764 -10.64967777 5.34988252 -8.11707211 2.25447559 C-5.33136101 0.5446123 -3.24857416 0.00400215 0 0 Z " fill="#1D395F" transform="translate(334.1170721054077,565.7455244064331)"/>
  <path d="M0 0 C5.47878303 4.56909979 10.56114603 9.41850571 15.59741211 14.46801758 C16.42748779 15.29634094 17.25756348 16.12466431 18.11279297 16.97808838 C20.83681925 19.6977375 23.55720032 22.42099898 26.27734375 25.14453125 C28.17291403 27.03942769 30.06863148 28.93417597 31.9644928 30.82878113 C35.92612497 34.78860031 39.88565749 38.75050977 43.84399414 42.71362305 C48.42460024 47.29969268 53.0088281 51.88211839 57.59490961 56.46271211 C61.53740877 60.40068214 65.47796713 64.34058628 69.41689116 68.28213233 C71.76766083 70.63446299 74.11930031 72.98591109 76.47230339 75.33600807 C79.08673806 77.94792007 81.69797453 80.56298675 84.30834961 83.17895508 C85.09216507 83.96074631 85.87598053 84.74253754 86.68354797 85.54801941 C87.38863495 86.25592621 88.09372192 86.96383301 88.82017517 87.69319153 C89.43790267 88.31129605 90.05563017 88.92940058 90.69207668 89.56623554 C92 91 92 91 92 92 C81.83802257 92.13930181 71.67627397 92.24577368 61.51353455 92.31087303 C56.79399785 92.3421251 52.07511657 92.38448484 47.35595703 92.45263672 C42.7977051 92.51804945 38.24008172 92.55375208 33.68139648 92.56926346 C31.94626984 92.5803107 30.21117584 92.60188401 28.47631836 92.63438034 C13.19421919 92.90913178 13.19421919 92.90913178 8.18359375 89.46337891 C6.47636414 87.77688599 6.47636414 87.77688599 5 86 C4.4862532 85.48847382 3.97250641 84.97694763 3.44319153 84.44992065 C-2.03735672 77.81709633 -0.61633197 68.2531938 -0.48828125 60.15625 C-0.47894431 58.41891501 -0.47183236 56.68156678 -0.46684265 54.94421387 C-0.44784199 50.39338198 -0.3988022 45.84336053 -0.34332275 41.29284668 C-0.29197967 36.64065511 -0.2692966 31.98833133 -0.24414062 27.3359375 C-0.19067573 18.22360418 -0.10544817 9.11186975 0 0 Z " fill="#E7EEF4" transform="translate(638,233)"/>
  <path d="M0 0 C1.1735051 -0.00571014 2.34701019 -0.01142029 3.55607605 -0.01730347 C4.85013367 -0.01842133 6.14419128 -0.01953918 7.47746277 -0.02069092 C8.84893935 -0.02531836 10.22041464 -0.03034292 11.59188843 -0.03573608 C15.32339117 -0.04887017 19.05487592 -0.05530712 22.78639817 -0.05974674 C25.11718059 -0.06267614 27.44795808 -0.06678071 29.77873802 -0.07125092 C37.06963701 -0.08492914 44.36052474 -0.09459393 51.65143567 -0.09845281 C60.07048178 -0.10293307 68.48936549 -0.12047806 76.90836221 -0.1494534 C83.41373809 -0.17106612 89.91906826 -0.18115688 96.42447966 -0.18249393 C100.31079864 -0.18354235 104.19696503 -0.1894578 108.08324623 -0.20731354 C111.73992581 -0.22378701 115.396338 -0.22595339 119.05304146 -0.21717453 C121.03329027 -0.21603644 123.01353018 -0.22975983 124.99372864 -0.243927 C126.17569321 -0.23835785 127.35765778 -0.2327887 128.57543945 -0.22705078 C129.60064099 -0.22851734 130.62584253 -0.2299839 131.68211079 -0.2314949 C135.97226239 0.3391836 138.59953131 2.04968674 141.29069519 5.39044189 C142.82845177 8.95156239 142.95110187 11.28963035 142.47819519 15.14044189 C140.76782119 18.49784271 139.59685395 20.57571367 136.19853115 22.29127598 C133.20367186 23.22613567 130.77520866 23.4001996 127.64031982 23.41459656 C125.88866516 23.42955925 125.88866516 23.42955925 124.10162354 23.44482422 C122.82927353 23.44548889 121.55692352 23.44615356 120.24601746 23.44683838 C118.88556973 23.45446414 117.52512631 23.46289236 116.16468811 23.47206116 C112.47667403 23.49396839 108.78874284 23.50279961 105.10067105 23.5078876 C102.79515114 23.51153477 100.48965282 23.51777662 98.18414116 23.52488899 C90.13721134 23.54936759 82.09034588 23.56243254 74.04338074 23.565979 C66.54796649 23.56961602 59.05296128 23.59952703 51.55767208 23.64138359 C45.11675223 23.67608857 38.67596797 23.69152745 32.23495525 23.69222504 C28.39045968 23.69301761 24.54638127 23.70174672 20.7019825 23.7302227 C17.08614288 23.75640847 13.47106622 23.75860666 9.85517502 23.74256706 C7.90016639 23.73988984 5.94517258 23.76193135 3.99029541 23.78475952 C-5.59560495 23.70480555 -5.59560495 23.70480555 -9.29440308 20.79048157 C-12.40304614 17.09198959 -12.91664048 14.01567518 -12.88117981 9.21075439 C-12.24001452 5.51708479 -10.16248869 3.71825235 -7.52180481 1.14044189 C-4.89438753 -0.17326675 -2.94353421 0.00855021 0 0 Z " fill="#1D395F" transform="translate(334.5218048095703,628.8595581054688)"/>
  <path d="M0 0 C0.66 0.33 1.32 0.66 2 1 C2 185.8 2 370.6 2 561 C1.01 561 0.02 561 -1 561 C-1.01711056 507.73489455 -1.03303219 454.46978885 -1.04234314 401.2046814 C-1.04255023 400.02303064 -1.04255023 400.02303064 -1.04276149 398.81750815 C-1.04575408 381.69908599 -1.04852431 364.5806638 -1.05106533 347.46224157 C-1.05231272 339.06792666 -1.05360926 330.67361177 -1.05493164 322.27929688 C-1.0550624 321.44394133 -1.05519316 320.60858578 -1.05532788 319.74791643 C-1.0595927 292.6493834 -1.06710659 265.55085245 -1.07629722 238.45232068 C-1.08572109 210.61566388 -1.09188341 182.77900823 -1.09391499 154.94234986 C-1.09420316 151.01473201 -1.0945288 147.08711416 -1.09487724 143.15949631 C-1.09494467 142.38645003 -1.09501209 141.61340376 -1.09508156 140.81693184 C-1.09626537 128.35012254 -1.10090907 115.88331679 -1.10683203 103.41650894 C-1.11270671 90.89703505 -1.11497114 78.37756469 -1.11350138 65.85808946 C-1.11280561 59.06914457 -1.11374574 52.28020924 -1.11920547 45.49126625 C-1.12404056 39.28607124 -1.12433791 33.08089381 -1.12089889 26.87569802 C-1.12047331 24.62130282 -1.12176812 22.36690658 -1.12488318 20.1125135 C-1.12884934 17.06705557 -1.12676197 14.02166258 -1.12304783 10.97620583 C-1.12567484 10.08463075 -1.12830186 9.19305568 -1.13100848 8.27446318 C-1.1141458 2.2282916 -1.1141458 2.2282916 0 0 Z " fill="#DDE0E5" transform="translate(271,231)"/>
  <path d="M0 0 C0.33 0 0.66 0 1 0 C1 101.64 1 203.28 1 308 C-71.6 308 -144.2 308 -219 308 C-218.67 307.34 -218.34 306.68 -218 306 C-146.39 305.67 -74.78 305.34 -1 305 C-0.505 154.025 -0.505 154.025 0 0 Z " fill="#D9DEE3" transform="translate(749,349)"/>
  <path d="M0 0 C0 12.54 0 25.08 0 38 C-6.67343025 36.33164244 -12.95625717 32.96758881 -17.0625 27.3125 C-19.81008215 22.61502083 -20.97540872 18.40820674 -20 13 C-17.08790616 6.73842272 -12.45507214 3.69523665 -6.3671875 0.8125 C-4 0 -4 0 0 0 Z " fill="#F5F5F6" transform="translate(399,306)"/>
  <path d="M0 0 C7.15032782 1.1917213 11.46243553 3.33230402 16.4375 8.5625 C19.44280842 13.25078114 19.76979972 18.55769502 19 24 C16.83840643 29.65650655 13.25665987 33.0026393 8.16015625 36.08984375 C6 37 6 37 0 38 C0 25.46 0 12.92 0 0 Z " fill="#F6F7F7" transform="translate(423,382)"/>
  <path d="M0 0 C1.32 0.33 2.64 0.66 4 1 C3.67 1.33 3.34 1.66 3 2 C2.84028023 4.37338639 2.7407567 6.72118272 2.68359375 9.09765625 C2.66281265 9.80651474 2.64203156 10.51537323 2.62062073 11.24571228 C2.55505402 13.51787305 2.4962077 15.79015264 2.4375 18.0625 C2.39432151 19.59962183 2.35070745 21.1367315 2.30664062 22.67382812 C2.19936551 26.4490959 2.09811863 30.2244836 2 34 C1.67 34 1.34 34 1 34 C0.67 22.78 0.34 11.56 0 0 Z " fill="#F0F1F2" transform="translate(423,382)"/>
  <path d="M0 0 C1 3 1 3 -0.51171875 6.43359375 C-1.22645668 7.77389374 -1.95220699 9.10836549 -2.6875 10.4375 C-3.21633789 11.44006836 -3.21633789 11.44006836 -3.75585938 12.46289062 C-5.77690772 16.19093044 -7.7803899 19.15831253 -11 22 C-11.33 20.68 -11.66 19.36 -12 18 C-11.01 17.67 -10.02 17.34 -9 17 C-7.75875157 15.2997818 -7.75875157 15.2997818 -6.73828125 13.18359375 C-6.34189453 12.41982422 -5.94550781 11.65605469 -5.53710938 10.86914062 C-5.13298828 10.06669922 -4.72886719 9.26425781 -4.3125 8.4375 C-3.89677734 7.63119141 -3.48105469 6.82488281 -3.05273438 5.99414062 C-2.02636638 4.0003913 -1.00928802 2.00243503 0 0 Z " fill="#10264E" transform="translate(895,817)"/>
  <path d="M0 0 C0.99 0.33 1.98 0.66 3 1 C1.7934375 1.9590625 1.7934375 1.9590625 0.5625 2.9375 C-2.75412763 6.90127449 -2.87952582 9.97294083 -3 15 C-3.33 15 -3.66 15 -4 15 C-4.63019694 5.98468271 -4.63019694 5.98468271 -2 1.875 C-1.34 1.25625 -0.68 0.6375 0 0 Z " fill="#0C1C46" transform="translate(327,503)"/>
  <path d="M0 0 C0 4.38968456 -2.12805101 5.76905739 -5 9 C-5.66 8.67 -6.32 8.34 -7 8 C-4.69 5.36 -2.38 2.72 0 0 Z " fill="#142E53" transform="translate(856,837)"/>
</svg>